<svg width="64" height="46" viewBox="0 0 64 46" fill="none" xmlns="http://www.w3.org/2000/svg">
<path d="M5.35161 0.659435L0.637329 2.54515L3.93733 11.5021L2.52304 12.445L11.9516 36.9593L14.7802 36.0164L16.1945 38.845L11.9516 40.7307C13.4602 44.8793 18.2373 44.9736 20.4373 44.5022C31.7516 42.3022 54.5688 37.8079 55.323 37.4307C56.2659 36.9593 56.7373 36.9593 58.1516 36.9593C59.5659 36.9593 60.0373 35.545 60.9802 35.545C61.7345 35.545 61.923 32.7164 61.923 31.3022C62.6773 30.925 62.2373 27.0593 61.923 25.1736L63.3373 21.4022L60.5088 3.95929C61.263 3.95929 61.7659 3.01653 61.923 2.54515C56.643 0.282292 22.0088 0.345149 5.35161 0.659435Z" fill="white" fill-opacity="0.15" stroke="white" stroke-opacity="0.5"/>
</svg>
