<svg width="40" height="77" viewBox="0 0 40 77" fill="none" xmlns="http://www.w3.org/2000/svg">
<path d="M6.29584 8.51429C5.54156 8.51429 5.66727 7.25714 5.82441 6.62857C5.0701 5.87429 4.253 7.57143 3.93873 8.51429C4.09588 9.3 4.50445 11.1543 4.88159 12.2857C5.25873 13.4171 6.92445 13.3857 7.71016 13.2286L14.7816 11.3429L15.253 14.1714L14.7816 16.0571C14.6244 16.0571 13.6502 16.34 11.0102 17.4714C8.37016 18.6029 7.39588 21.0857 7.23873 22.1857C5.35302 22.94 5.51016 25.3286 5.82445 26.4286L0.638733 29.2571C1.77016 31.8971 4.25302 32.8714 5.35302 33.0286L4.41016 31.1429L6.29588 32.0857H7.23873L16.6673 27.3714C17.7673 27.8429 19.9673 29.1629 19.9673 30.6714C19.9673 32.5571 17.1387 42.9286 17.1387 47.1714C17.1387 50.5657 18.0816 54.2429 18.553 55.6572L26.0959 75.9286L36.9387 71.6857L38.8244 70.2714C37.7244 67.9143 35.5244 62.8229 35.5244 61.3143C35.5244 59.8057 33.6387 58.4857 32.6959 58.0143C31.2816 55.0286 28.3587 48.02 27.9816 43.8714C27.5102 38.6857 29.8673 36.3286 30.3387 30.2C30.8102 24.0714 29.3959 24.0714 29.3959 23.1286C29.3959 22.3743 30.653 22.1857 31.2816 22.1857C33.5444 22.94 34.4244 22.1857 34.5816 21.7143C35.713 21.7143 36.6244 20.7714 36.9387 20.3L35.5244 19.8286C35.9959 18.8857 35.5244 16.0571 34.1102 16.0571C32.9787 16.0571 25.7816 13.8571 22.3244 12.7571L21.3816 9.92857C23.4244 9.3 27.793 7.94857 28.9244 7.57143C30.3387 7.1 29.8673 4.74286 29.3959 3.32857C28.9244 1.91429 28.453 0.5 27.5102 0.5C26.5673 0.5 25.6244 0.5 25.6244 0.971429C25.6244 1.44286 26.0959 1.44286 26.5673 1.44286C26.9444 1.44286 27.0387 2.7 27.0387 3.32857C20.4387 5.05714 7.05013 8.51429 6.29584 8.51429Z" fill="white" fill-opacity="0.15" stroke="white" stroke-opacity="0.5"/>
</svg>
