<svg width="101" height="80" viewBox="0 0 101 80" fill="none" xmlns="http://www.w3.org/2000/svg">
<path d="M99.1771 3.0921L94.9343 0.73496C93.2371 -0.207897 92.6557 1.91353 92.5771 3.0921C86.5157 -0.302183 80.9372 1.04925 78.9057 2.14925L51.0914 62.0207H48.7343V63.9064L39.3057 58.7207L36.4771 49.2921C35.5343 47.8778 33.6486 44.5778 33.6486 42.6921C33.6486 40.8064 34.5914 38.7635 35.0628 37.9778C33.1771 33.2635 29.3114 23.4578 28.9343 21.9492C28.4628 20.0635 26.5771 17.7064 24.6914 17.235C23.1828 16.8578 22.8057 14.8778 22.8057 13.935L0.64856 22.8921L22.8057 78.5207C36.0057 75.8493 63.16 70.3178 66.1771 69.5635C69.9486 68.6207 97.7628 12.9921 99.6486 8.74925C101.157 5.35496 99.9628 3.56353 99.1771 3.0921Z" fill="white" fill-opacity="0.15" stroke="white" stroke-opacity="0.5"/>
</svg>
