<svg width="132" height="124" viewBox="0 0 132 124" fill="none" xmlns="http://www.w3.org/2000/svg">
<mask id="path-1-inside-1_314_4639" fill="white">
<path d="M67.8857 0C87.5286 1.41429 127.663 16.029 131.058 63.1719H127.286L127.281 63.9512C126.864 96.9182 100.009 123.514 66.9434 123.515C33.617 123.515 6.59972 96.4982 6.59961 63.1719C6.59961 58.5 7.13092 53.9518 8.13574 49.585C6.79035 50.508 4.28454 51.3857 0 51.3857C1.1 51.2286 3.39434 50.1597 3.77148 47.1426C4.24336 43.3702 11.3148 23.1002 26.8711 13.6719V11.3145L26.4004 2.8291L28.7568 1.88574V0.943359L67.8857 0Z"/>
</mask>
<path d="M67.8857 0C87.5286 1.41429 127.663 16.029 131.058 63.1719H127.286L127.281 63.9512C126.864 96.9182 100.009 123.514 66.9434 123.515C33.617 123.515 6.59972 96.4982 6.59961 63.1719C6.59961 58.5 7.13092 53.9518 8.13574 49.585C6.79035 50.508 4.28454 51.3857 0 51.3857C1.1 51.2286 3.39434 50.1597 3.77148 47.1426C4.24336 43.3702 11.3148 23.1002 26.8711 13.6719V11.3145L26.4004 2.8291L28.7568 1.88574V0.943359L67.8857 0Z" fill="white" fill-opacity="0.15"/>
<path d="M67.8857 0L67.9576 -0.997418L67.9097 -1.00087L67.8616 -0.999709L67.8857 0ZM131.058 63.1719V64.1719H132.132L132.055 63.1001L131.058 63.1719ZM127.286 63.1719V62.1719H126.292L126.286 63.1656L127.286 63.1719ZM127.281 63.9512L128.281 63.9638L128.281 63.9574L127.281 63.9512ZM66.9434 123.515V124.515H66.9434L66.9434 123.515ZM6.59961 63.1719H5.59961V63.1719L6.59961 63.1719ZM8.13574 49.585L9.11028 49.8092L9.6856 47.3089L7.57001 48.7604L8.13574 49.585ZM0 51.3857L-0.141423 50.3958L0 52.3857V51.3857ZM3.77148 47.1426L2.77922 47.0185L2.77921 47.0185L3.77148 47.1426ZM26.8711 13.6719L27.3894 14.5271L27.8711 14.2351V13.6719H26.8711ZM26.8711 11.3145H27.8711V11.2867L27.8696 11.2591L26.8711 11.3145ZM26.4004 2.8291L26.0287 1.90073L25.3622 2.16758L25.4019 2.88449L26.4004 2.8291ZM28.7568 1.88574L29.1285 2.81411L29.7568 2.56257V1.88574H28.7568ZM28.7568 0.943359L28.7327 -0.0563501L27.7568 -0.0328222V0.943359H28.7568ZM67.8857 0L67.8139 0.997418C77.4743 1.69297 92.2268 5.64638 104.963 15.2366C117.666 24.8014 128.386 39.9848 130.06 63.2437L131.058 63.1719L132.055 63.1001C130.335 39.2161 119.29 23.5207 106.166 13.6389C93.0763 3.78242 77.9401 -0.278673 67.9576 -0.997418L67.8857 0ZM131.058 63.1719V62.1719H127.286V63.1719V64.1719H131.058V63.1719ZM127.286 63.1719L126.286 63.1656L126.281 63.9449L127.281 63.9512L128.281 63.9574L128.286 63.1781L127.286 63.1719ZM127.281 63.9512L126.281 63.9385C125.871 96.3589 99.4613 122.514 66.9434 122.515L66.9434 123.515L66.9434 124.515C100.557 124.514 127.857 97.4775 128.281 63.9638L127.281 63.9512ZM66.9434 123.515V122.515C34.1693 122.515 7.59972 95.9459 7.59961 63.1719L6.59961 63.1719L5.59961 63.1719C5.59972 97.0505 33.0647 124.515 66.9434 124.515V123.515ZM6.59961 63.1719H7.59961C7.59961 58.576 8.12225 54.1031 9.11028 49.8092L8.13574 49.585L7.16121 49.3607C6.13959 53.8006 5.59961 58.4239 5.59961 63.1719H6.59961ZM8.13574 49.585L7.57001 48.7604C6.44794 49.5302 4.16461 50.3857 0 50.3857V51.3857V52.3857C4.40447 52.3857 7.13275 51.4858 8.70147 50.4095L8.13574 49.585ZM0 51.3857L0.141423 52.3757C1.55742 52.1734 4.31587 50.8497 4.76376 47.2666L3.77148 47.1426L2.77921 47.0185C2.47281 49.4697 0.642589 50.2838 -0.141423 50.3958L0 51.3857ZM3.77148 47.1426L4.76375 47.2667C4.86663 46.4442 5.36258 44.5595 6.32792 42C7.28402 39.4651 8.67753 36.3291 10.5366 33.0177C14.2628 26.3807 19.8146 19.118 27.3894 14.5271L26.8711 13.6719L26.3528 12.8167C18.3712 17.6541 12.6092 25.2405 8.79264 32.0387C6.88034 35.4449 5.44524 38.673 4.4566 41.2943C3.4772 43.891 2.91227 45.9548 2.77922 47.0185L3.77148 47.1426ZM26.8711 13.6719H27.8711V11.3145H26.8711H25.8711V13.6719H26.8711ZM26.8711 11.3145L27.8696 11.2591L27.3989 2.77371L26.4004 2.8291L25.4019 2.88449L25.8726 11.3698L26.8711 11.3145ZM26.4004 2.8291L26.772 3.75747L29.1285 2.81411L28.7568 1.88574L28.3852 0.957372L26.0287 1.90073L26.4004 2.8291ZM28.7568 1.88574H29.7568V0.943359H28.7568H27.7568V1.88574H28.7568ZM28.7568 0.943359L28.7809 1.94307L67.9098 0.999709L67.8857 0L67.8616 -0.999709L28.7327 -0.0563501L28.7568 0.943359Z" fill="white" fill-opacity="0.5" mask="url(#path-1-inside-1_314_4639)"/>
</svg>
