<svg width="48" height="37" viewBox="0 0 48 37" fill="none" xmlns="http://www.w3.org/2000/svg">
<path d="M6.65614 0.575661C0.244708 0.952804 0.21328 7.96138 0.998994 11.4185C1.47021 12.3612 2.4127 12.3612 2.88429 12.3612H2.88477C3.26191 12.3612 3.67048 11.7326 3.82762 11.4184L6.18477 10.9469L6.65619 11.8898L7.12762 14.7184C5.71334 15.3469 2.69619 16.6041 1.94191 16.6041C1.18762 16.6041 0.684716 17.5469 0.527549 18.0184C0.370406 18.6469 0.810406 19.9041 3.82755 19.9041C6.84469 19.9041 10.1133 17.0755 11.3704 15.6612H12.3133L14.199 17.0755L18.4418 16.6041C18.819 16.9812 19.8561 17.0755 20.3275 17.0755L20.799 19.4326L21.7418 18.9612L27.8704 35.9326L31.6418 34.0469L25.9847 17.5469L26.9275 17.0755L25.9847 14.7184C27.4933 14.7184 31.0133 12.5185 32.5847 11.4185H36.3561L46.7275 9.06122L47.199 7.64693C47.199 4.62966 43.1133 2.30402 41.0704 1.51836C34.3133 1.67556 20.5161 1.98995 19.3847 1.98995C17.9704 1.98995 14.6704 0.104233 6.65614 0.575661Z" fill="white" fill-opacity="0.15" stroke="white" stroke-opacity="0.5"/>
</svg>
